<svg width="464" height="142" viewBox="0 0 464 142" fill="none" xmlns="http://www.w3.org/2000/svg">
<g clip-path="url(#clip0_96_490)">
<path d="M176.258 19.7956C180.576 19.5157 185.888 19.7197 189.669 22.1674C191.311 23.2306 192.38 24.9635 193.567 26.3496C197.82 31.3129 198.452 32.9153 199.747 39.0434C201.927 49.3646 201.131 60.0001 195.146 68.966C191.802 73.9766 187.265 76.5525 181.365 77.634C156.323 79.4742 150.815 44.1013 162.626 28.0154C166.714 22.4475 169.642 20.9796 176.258 19.7956ZM179.478 64.2925C185.337 61.5579 185.184 49.9159 185.054 44.3791C184.962 40.4874 183.954 30.7902 178.587 31.0646C177.05 31.5681 176.664 31.8425 175.607 33.1057C171.269 38.2941 171.159 61.0627 177.351 64.3006C178.215 64.378 178.63 64.3512 179.478 64.2925Z" fill="white"/>
<path d="M375.309 19.3623C383.16 22.3974 392.91 18.8492 401.619 21.8588C415.745 26.7402 418.703 45.5707 404.33 52.12C408.107 60.3446 412.069 68.4825 416.214 76.5275C412.362 76.9331 405.433 76.76 401.358 76.7701L400.226 76.6304C398.857 75.9447 392.619 56.2994 391.165 53.6406C391.038 53.4072 390.738 52.6918 390.599 52.4013C390.06 55.2043 390.183 59.9774 390.183 62.9517C390.163 67.5271 390.184 72.1025 390.247 76.6775C385.883 76.8815 379.542 76.7931 375.165 76.7093C374.748 71.7848 375.038 63.0405 375.056 57.7055L375.309 19.3623ZM389.739 46.4463C392.632 46.3882 394.208 46.7403 396.287 44.7261C400.054 39.6755 399.98 31.159 392.096 30.5834C391.529 30.542 390.958 30.5187 390.388 30.5013C389.63 35.3504 390.526 41.7089 389.739 46.4463Z" fill="white"/>
<path d="M305.338 19.4657C306.007 20.5808 305.528 37.4026 305.218 39.4618C309.356 40.9445 310.213 39.6106 314.536 39.5884C314.388 37.1444 314.089 21.4907 314.789 19.9557C320.041 20.9897 323.77 20.9444 328.942 19.8629C329.673 20.598 329.412 31.3466 329.437 33.1922C329.586 42.3065 329.656 51.422 329.645 60.5376C329.659 65.5999 329.52 71.6982 329.786 76.6905C327.639 76.7065 315.892 76.9091 314.603 76.6014C314.177 76.1217 314.266 75.4311 314.262 74.768C314.074 67.4767 314.347 60.0128 314.152 52.5922C311.707 52.6253 308.291 52.7644 305.934 52.532C306.024 60.5372 305.915 68.7127 305.925 76.734C300.901 76.6837 295.891 76.8377 290.854 76.6967C290.622 72.6599 290.728 68.2102 290.743 64.1289L290.809 46.0103C290.855 38.3506 290.556 26.8488 291.057 19.3832C294.675 21.1268 299.387 20.6043 303.523 20.5857L305.338 19.4657Z" fill="white"/>
<path d="M209.002 19.4615C213.258 20.9527 219.105 21.289 223.299 19.5017C223.617 22.4133 223.48 27.8932 223.481 30.9614C223.47 37.0627 223.517 43.1639 223.623 49.2643C223.687 53.9199 223.286 58.9113 224.985 63.1868C227.908 65.0439 229.361 64.7237 232.084 62.7547C232.846 58.2823 232.389 53.9727 232.643 49.5163C233.212 39.4756 233.01 29.4734 233.147 19.4176C233.597 19.6993 234.496 20.2503 235.099 20.3368C238.393 20.8083 242.535 20.7935 245.84 20.3861C246.21 20.3406 247.477 19.5388 247.794 19.3367L247.911 31.4256C247.875 40.7237 248.389 50.0295 248.19 59.3156C248.007 64.4996 246.946 68.6711 243.089 72.4024C235.578 79.6701 220.667 79.424 213.459 71.8567C208.372 66.5161 208.404 57.7104 208.483 50.839C208.539 46.034 208.48 40.8368 208.835 35.9986C209.037 30.5105 208.755 24.9757 209.002 19.4615Z" fill="white"/>
<path d="M175.278 85.2253C178.822 86.8366 185.665 85.8683 189.799 86.1557C193.222 86.3928 197.889 87.0615 201.075 88.1939C207.924 90.6275 211.776 100.65 208.901 107.242C207.254 111.018 205.287 112.642 201.717 114.285C202.914 118.429 205.503 123.017 207.438 126.972C208.746 129.644 210.682 133.77 212.184 136.223C207.986 136.7 202.45 136.547 198.098 136.538C196.518 135.862 193.398 124.897 192.439 122.785C191.208 120.072 190.745 117.095 188.94 114.414C188.697 116.757 188.762 120.561 188.761 122.981L188.781 136.522C186.327 136.51 176.94 136.869 175.439 136.148C174.451 133.837 175.442 91.5367 175.278 85.2253ZM192.703 109.164C193.234 108.794 194.054 108.259 194.514 107.841C196.948 104.705 197.891 98.9661 194.417 96.1929C192.93 95.0062 190.764 95.0553 188.939 94.9459C188.354 95.9826 188.389 107.696 188.68 108.974C189.688 109.499 191.561 109.252 192.703 109.164Z" fill="white"/>
<path d="M339.054 19.4983C339.481 19.7194 339.923 19.935 340.374 20.1066C342.148 20.7825 364.274 21.0358 365.776 20.3283C366.162 20.1468 366.568 20.0151 366.967 19.8657C367.668 20.5503 367.422 29.3696 367.421 31.0717C363.052 31.2637 358.041 31.2157 353.604 31.3106C353.77 33.7689 353.838 38.8901 353.356 41.2458C357.5 41.2733 361.644 41.2688 365.789 41.232L365.8 41.3157C366.208 44.5934 366.129 49.7029 366.21 53.1855C362.49 53.4321 357.629 53.3356 353.794 53.4187C353.819 54.937 353.557 62.9424 353.647 63.6172C357.593 63.6616 363.817 63.8384 367.576 63.4506C367.925 67.6963 367.63 72.3205 367.798 76.6683C358.538 76.8996 348.011 76.833 338.726 76.7157C338.491 70.2033 338.617 63.1001 338.625 56.5394C338.564 44.1909 338.707 31.8421 339.054 19.4983Z" fill="white"/>
<path d="M136.092 19.5582C138.443 19.1262 146.768 20.4094 149.211 21.1996C149.666 25.4504 149.431 31.35 149.596 35.8713C146.583 32.7754 140.428 27.6663 136.454 32.7422C132.459 37.2542 139.337 42.8841 143.161 45.1928C156.898 53.4848 152.009 74.5439 135.696 77.4102C131.223 78.44 125.267 76.8444 121.134 75.157C120.834 71.768 121.181 63.5403 121.344 59.9701C124.535 62.774 127.738 65.2586 132.141 64.428C139.471 63.0451 135.483 56.2428 131.711 53.4632C128.497 51.0952 124.974 47.7148 123.019 44.3953C119.219 37.9436 121.367 30.5875 125.634 25.027C127.905 22.044 132.441 19.9916 136.092 19.5582Z" fill="white"/>
<path d="M218.157 85.3513C220.596 86.5799 240.826 86.3645 243.496 85.5506C243.335 88.2363 243.523 92.6201 243.634 95.3201C239.632 95.3356 235.455 95.5269 231.504 95.4691C231.23 98.8059 231.546 101.58 230.995 105.086C234.303 104.793 238.673 105.142 242.408 104.875C242.804 107.219 242.68 112.932 242.684 115.498C238.983 115.492 235.281 115.54 231.582 115.642C231.563 118.833 231.503 122.023 231.401 125.212C232.48 125.693 237.968 124.931 239.427 124.884C240.587 124.847 242.553 124.712 243.448 125.607C244.585 126.748 243.994 134.402 243.994 136.434C241.425 136.638 237.373 136.533 234.683 136.535L217.943 136.541C217.675 134.034 217.816 128.703 217.818 125.951L217.858 106.248L217.912 93.3156C217.918 91.2663 217.848 87.2478 218.157 85.3513Z" fill="white"/>
<path d="M252.91 19.5095C253.298 19.6358 254.446 20.2795 254.904 20.3095C264.253 20.9195 274.085 20.5691 283.483 20.5058C283.881 20.5031 285.364 19.5348 285.73 19.3008C285.672 22.9549 285.644 27.7567 285.844 31.3249C283.016 31.1558 279.548 31.4477 276.509 31.34C276.569 32.9547 276.447 34.8995 276.481 36.5964C276.686 46.4791 276.742 56.3643 276.651 66.2487L276.65 76.7206C271.628 76.756 266.605 76.7548 261.583 76.7171C261.254 73.4458 261.465 65.7204 261.472 62.1511C261.559 51.9069 261.576 41.6623 261.524 31.4178C258.65 31.4383 255.777 31.3869 252.907 31.2639C252.782 27.5213 252.89 23.2888 252.91 19.5095Z" fill="white"/>
<path d="M122.461 85.2762C122.631 85.3622 123.519 85.7752 123.651 85.7811C128.474 85.9976 142.983 87.1221 146.704 85.1156C146.69 88.5285 146.715 91.942 146.779 95.3546C143.145 95.2891 139.276 95.5778 135.735 95.4097C135.932 99.791 135.374 101.713 134.287 105.881C135.74 105.822 137.538 106.145 139.058 106.252C141.62 106.431 143.672 105.976 146.122 105.398C146.029 108.512 146.153 112.294 146.153 115.475L138.943 115.53L135.797 115.573L135.848 136.472C131.325 136.534 126.801 136.553 122.278 136.53C121.795 124.801 122.485 112.554 122.269 100.772C122.179 95.8553 122.118 90.1021 122.461 85.2762Z" fill="white"/>
<path d="M359.818 86.4025C385.984 86.2413 413.172 85.8133 439.323 86.3086C438.656 86.9807 437.983 87.6486 437.305 88.3105C432.975 92.5168 429.231 91.393 423.519 91.3767L406.758 91.3448C385.251 91.4215 363.743 91.3379 342.236 91.0931L262.869 90.5942L262.906 86.9988L359.818 86.4025Z" fill="white"/>
<path d="M86.0001 65.7545C86.084 65.7984 86.168 65.8423 86.2516 65.8862C93.4069 72.3133 94.0928 83.6108 92.6408 92.238C89.3919 111.543 69.8501 119.808 60.0038 134.863C59.3696 135.893 58.5288 137.607 57.4531 137.948L57.0631 137.529C56.3089 135.216 56.8646 131.714 57.1161 129.356C58.8974 112.654 72.0732 106.649 79.384 92.8956C84.4623 83.3421 85.5381 76.2952 86.0001 65.7545Z" fill="white"/>
<path d="M360.959 101.13C380.729 101.062 401.44 100.704 421.145 101.124C420.966 101.326 420.781 101.52 420.589 101.708C415.394 106.84 415.062 106.049 408 106.049C403.962 106.034 399.923 106.04 395.885 106.067C371.494 106.39 347.102 106.44 322.71 106.215C309.673 106.182 296.601 106.069 283.56 106.022C280.808 106.036 278 105.41 275.267 105.332C271.149 105.213 266.975 105.228 262.855 105.208L262.909 101.705L360.959 101.13Z" fill="white"/>
<path d="M68.4061 48.1381C69.5416 48.7187 71.8174 52.1504 72.2122 53.608C72.8649 55.8826 73.3532 58.3092 73.5818 60.6697C75.9129 84.7435 50.5222 97.3573 46.1519 119.354C45.8923 120.66 46.3368 124.39 46.1052 124.867L45.7684 124.838C41.8764 120.168 38.6641 113.766 39.6664 107.537C40.6473 101.44 45.0524 96.2715 48.2032 91.1258C52.5201 84.1007 57.3998 77.4703 61.6088 70.3741C62.4505 68.9551 63.6484 67.1591 64.2323 65.623C65.6456 61.9058 67.3561 58.0274 67.8804 54.0651C68.1444 52.0695 68.0314 50.1294 68.4061 48.1381Z" fill="white"/>
<path d="M165.975 85.4046L166.407 85.3303C166.494 85.4255 166.598 85.5387 166.718 85.6699C166.867 99.8286 166.893 123.044 167.048 136.414C163.731 136.726 157.401 136.54 153.989 136.512L153.51 136.295C153.008 135.659 153.196 129.144 153.199 127.882L153.227 113.694C153.248 105.319 152.93 93.6204 153.438 85.4059C153.861 85.5614 154.291 85.6955 154.728 85.8077C156.624 86.285 164.106 86.5323 165.975 85.4046Z" fill="white"/>
<path d="M353.225 115.848L403.431 115.761C402.531 116.614 401.623 117.46 400.71 118.297C398.663 120.161 397.511 120.641 394.703 120.696C392.204 120.744 389.704 120.71 387.206 120.7L371.654 120.685C358.093 120.728 344.53 120.645 330.97 120.438C325.543 120.373 318.853 120.538 313.598 120.294L262.812 119.871L262.918 116.369C274.424 116.209 285.931 116.134 297.438 116.142L353.225 115.848Z" fill="white"/>
<path d="M332.208 130.574L369.753 130.554C374.762 130.561 380.199 130.739 385.134 130.616C383.901 131.751 380.631 135.019 379.294 135.151C374.337 135.64 367.712 135.478 362.724 135.513C346.614 135.688 330.502 135.711 314.391 135.584L282.131 135.407C279.449 135.398 264.96 135.629 263.517 134.871C262.535 133.806 262.787 132.385 262.817 130.919C285.485 130.356 309.477 130.62 332.208 130.574Z" fill="white"/>
<path d="M39.8383 2.1156C41.2768 3.75612 44.2446 6.77778 45.3302 8.40893C51.2285 17.5229 59.6388 30.1853 59.1538 41.3836C58.777 50.0826 51.5149 59.7047 46.9042 66.395C35.6661 82.7026 19.1894 102.662 27.9072 123.567C30.9947 130.971 35.985 135.062 40.0426 141.331H35.5696C34.6812 139.038 26.2887 135.956 23.7724 134.307C15.0751 128.605 6.60205 121.777 2.57895 111.862C2.01826 110.479 1.20885 108.084 6.10352e-05 107.33V90.8732C1.28266 90.0295 3.71779 83.6208 4.944 81.4485L25.2114 45.8653C26.6049 43.4018 28.348 41.1055 29.5818 38.546C31.4732 34.6227 33.8305 30.7747 35.7371 26.8893C37.6229 23.0586 39.0287 19.0096 39.9223 14.8341C40.7078 11.0222 40.8119 5.8863 39.8383 2.1156Z" fill="white"/>
<path d="M463.634 19.5938V76.7076C459.378 76.7367 453.077 76.9473 448.978 76.6581C447.053 72.5304 438.35 46.0156 437.083 44.9227L436.856 45.09C436.588 47.0859 436.842 52.6231 436.864 54.8572L437.122 76.6351C432.274 76.738 427.425 76.7687 422.576 76.7273C422.236 70.6269 422.443 62.832 422.458 56.6286C422.472 44.2196 422.552 31.8108 422.694 19.4026C426.144 21.3361 432.246 20.397 436.665 20.7164C437.551 22.5343 438.188 24.7588 439.044 26.5671C441.68 32.1191 443.827 37.7882 446.115 43.4899C447.072 45.8725 447.985 48.5915 449.026 50.9389C449.25 51.446 449.681 51.5565 450.172 51.6552L450.492 51.4336C450.705 50.2953 449.667 41.611 449.464 39.7941C448.677 32.7131 449.278 26.5067 449.406 19.4716C453.782 21.8116 459.208 20.2581 463.634 19.5938Z" fill="white"/>
</g>
<defs>
<clipPath id="clip0_96_490">
<rect width="463.634" height="141.331" fill="white"/>
</clipPath>
</defs>
</svg>
