<svg width="94" height="140" viewBox="0 0 94 140" fill="none" xmlns="http://www.w3.org/2000/svg">
<path d="M85.9996 63.6389C86.0835 63.6828 86.1675 63.7267 86.2511 63.7706C93.4064 70.1977 94.0924 81.4952 92.6403 90.1224C89.3914 109.428 69.8496 117.692 60.0033 132.747C59.3691 133.777 58.5283 135.491 57.4526 135.833L57.0626 135.414C56.3084 133.101 56.8642 129.599 57.1156 127.241C58.8969 110.539 72.0727 104.533 79.3835 90.78C84.4618 81.2265 85.5376 74.1796 85.9996 63.6389Z" fill="url(#paint0_linear_74_492)"/>
<path d="M68.4053 46.0225C69.5409 46.6031 71.8167 50.0348 72.2114 51.4924C72.8641 53.767 73.3524 56.1936 73.5811 58.5541C75.9122 82.6278 50.5215 95.2417 46.1511 117.238C45.8916 118.544 46.3361 122.275 46.1045 122.751L45.7677 122.723C41.8756 118.052 38.6634 111.651 39.6657 105.421C40.6466 99.3239 45.0517 94.1559 48.2024 89.0102C52.5194 81.9851 57.3991 75.3547 61.6081 68.2585C62.4498 66.8395 63.6476 65.0435 64.2316 63.5074C65.6449 59.7902 67.3553 55.9118 67.8796 51.9495C68.1437 49.9539 68.0307 48.0138 68.4053 46.0225Z" fill="url(#paint1_linear_74_492)"/>
<path d="M39.8382 0C41.2767 1.64052 44.2446 4.66218 45.3302 6.29333C51.2285 15.4073 59.6387 28.0697 59.1537 39.268C58.7769 47.967 51.5148 57.5891 46.9042 64.2794C35.6661 80.587 19.1894 100.547 27.9072 121.452C30.9946 128.855 35.9849 132.946 40.0426 139.215H35.5695C34.6811 136.922 26.2887 133.84 23.7724 132.191C15.075 126.49 6.60199 119.662 2.57889 109.746C2.0182 108.364 1.20878 105.968 0 105.215V88.7576C1.28259 87.9139 3.71773 81.5052 4.94393 79.3329L25.2114 43.7497C26.6048 41.2862 28.348 38.9899 29.5818 36.4304C31.4731 32.5071 33.8305 28.6591 35.7371 24.7737C37.6229 20.943 39.0286 16.894 39.9223 12.7185C40.7078 8.9066 40.8119 3.7707 39.8382 0Z" fill="url(#paint2_linear_74_492)"/>
<defs>
<linearGradient id="paint0_linear_74_492" x1="74.9727" y1="78.8113" x2="74.9727" y2="135.833" gradientUnits="userSpaceOnUse">
<stop stop-color="#FB7F09"/>
<stop offset="1" stop-color="#BE0200"/>
</linearGradient>
<linearGradient id="paint1_linear_74_492" x1="57.488" y1="65.3377" x2="56.6062" y2="122.751" gradientUnits="userSpaceOnUse">
<stop stop-color="#FB7F09"/>
<stop offset="1" stop-color="#BE0200"/>
</linearGradient>
<linearGradient id="paint2_linear_74_492" x1="29.5869" y1="45.5758" x2="29.5869" y2="139.215" gradientUnits="userSpaceOnUse">
<stop stop-color="#FB7F09"/>
<stop offset="1" stop-color="#BE0200"/>
</linearGradient>
</defs>
</svg>
